
<svg version="1.1" xmlns="http://www.w3.org/2000/svg" viewBox="0 0 12 12">
<title>loop</title>
<path d="M9.596 2.709c-0.891-0.973-2.172-1.584-3.596-1.584-2.692 0-4.875 2.183-4.875 4.875h0.914c0-2.188 1.773-3.961 3.961-3.961 1.171 0 2.224 0.509 2.949 1.317l-1.425 1.425h3.352v-3.352l-1.279 1.279z"></path>
<path d="M9.961 6c0 2.188-1.773 3.961-3.961 3.961-1.171 0-2.224-0.509-2.949-1.317l1.425-1.425h-3.352v3.352l1.279-1.279c0.891 0.973 2.172 1.584 3.596 1.584 2.692 0 4.875-2.183 4.875-4.875h-0.914z"></path>
</svg>
